<svg width="44" height="45" viewBox="0 0 44 45" fill="none" xmlns="http://www.w3.org/2000/svg">
<circle cx="22" cy="22.2798" r="22" fill="#1A1A1A"/>
<path fill-rule="evenodd" clip-rule="evenodd" d="M25.4 12.2798C25.6 13.3798 25.1 14.4798 24.5 15.2798C23.9 16.0798 22.8 16.7798 21.7 16.6798C21.5 15.5798 22 14.5798 22.6 13.7798C23.3 12.9798 24.4 12.3798 25.4 12.2798ZM28.6 29.6798C29.1 28.8798 29.4 28.3798 29.8 27.4798C26.7 26.2798 26.2 21.8798 29.3 20.2798C28.4 19.0798 27.1 18.4798 25.8 18.4798C24.9 18.4798 24.3 18.6798 23.7 18.8798C23.2 19.0798 22.8 19.1798 22.3 19.1798C21.7 19.1798 21.3 18.9798 20.7 18.7798C20.1 18.5798 19.5 18.3798 18.8 18.3798C17.4 18.3798 15.9 19.1798 15 20.6798C13.7 22.6798 13.9 26.5798 16 29.7798C16.9 30.9798 17.9 32.2798 19.2 32.2798C19.8 32.2798 20.1 32.0798 20.5 31.9798C21 31.7798 21.5 31.5798 22.3 31.5798C23.2 31.5798 23.6 31.7798 24.1 31.9798C24.5 32.1798 24.8 32.2798 25.4 32.2798C26.8 32.2798 27.8 30.7798 28.6 29.6798Z" stroke="white" stroke-width="1.5" stroke-miterlimit="10" stroke-linecap="round" stroke-linejoin="round"/>
</svg>
