<svg width="48" height="48" viewBox="0 0 48 48" fill="none" xmlns="http://www.w3.org/2000/svg">
<rect width="48" height="48" rx="12.4444" fill="#FFD500"/>
<path d="M21.0833 26.0417C21.0833 27.1734 21.9583 28.0834 23.0316 28.0834H25.2249C26.1582 28.0834 26.9166 27.29 26.9166 26.2984C26.9166 25.2367 26.4499 24.8517 25.7616 24.6067L22.2499 23.3817C21.5616 23.1367 21.0949 22.7634 21.0949 21.69C21.0949 20.71 21.8532 19.905 22.7866 19.905H24.9799C26.0532 19.905 26.9283 20.815 26.9283 21.9467" stroke="#292D32" stroke-width="1.8" stroke-linecap="round" stroke-linejoin="round"/>
<path d="M24 18.75V29.25" stroke="#292D32" stroke-width="1.8" stroke-linecap="round" stroke-linejoin="round"/>
<path d="M35.6666 24C35.6666 30.44 30.4399 35.6667 23.9999 35.6667C17.5599 35.6667 12.3333 30.44 12.3333 24C12.3333 17.56 17.5599 12.3334 23.9999 12.3334" stroke="#292D32" stroke-width="1.8" stroke-linecap="round" stroke-linejoin="round"/>
<path d="M35.6667 17V12.3334H31" stroke="#292D32" stroke-width="1.8" stroke-linecap="round" stroke-linejoin="round"/>
<path d="M29.8333 18.1667L35.6666 12.3334" stroke="#292D32" stroke-width="1.8" stroke-linecap="round" stroke-linejoin="round"/>
</svg>
